<svg width="24" height="24" viewBox="0 0 24 24" fill="none" xmlns="http://www.w3.org/2000/svg">
<path d="M22 19.9102H2L18.27 10.9102H22V19.9102Z" stroke="#F0EDE6" stroke-width="2" stroke-miterlimit="2" stroke-linecap="round" stroke-linejoin="round"/>
<path d="M1.92871 9.60059L3.54471 10.3996L12.2047 5.39959L12.3207 3.60059" stroke="#F0EDE6" stroke-width="2" stroke-miterlimit="2" stroke-linecap="round" stroke-linejoin="round"/>
<path d="M6.16504 12.4404C6.56286 12.4404 6.94439 12.2824 7.2257 12.0011C7.507 11.7198 7.66504 11.3383 7.66504 10.9404C7.66504 10.5426 7.507 10.1611 7.2257 9.87977C6.94439 9.59847 6.56286 9.44043 6.16504 9.44043C5.76721 9.44043 5.38568 9.59847 5.10438 9.87977C4.82307 10.1611 4.66504 10.5426 4.66504 10.9404C4.66504 11.3383 4.82307 11.7198 5.10438 12.0011C5.38568 12.2824 5.76721 12.4404 6.16504 12.4404V12.4404Z" fill="#F0EDE6"/>
<path d="M11.7246 9.44043C12.1224 9.44043 12.504 9.28239 12.7853 9.00109C13.0666 8.71979 13.2246 8.33825 13.2246 7.94043C13.2246 7.54261 13.0666 7.16107 12.7853 6.87977C12.504 6.59846 12.1224 6.44043 11.7246 6.44043C11.3268 6.44043 10.9453 6.59846 10.6639 6.87977C10.3826 7.16107 10.2246 7.54261 10.2246 7.94043C10.2246 8.33825 10.3826 8.71979 10.6639 9.00109C10.9453 9.28239 11.3268 9.44043 11.7246 9.44043V9.44043Z" fill="#F0EDE6"/>
</svg>
