<svg width="34" height="32" viewBox="0 0 34 32" fill="none" xmlns="http://www.w3.org/2000/svg">
<path d="M17.0655 29.4201C10.6867 21.3001 7.49805 15.5228 7.49805 12.0868C7.49805 10.8611 7.74552 9.64741 8.22632 8.51504C8.70713 7.38267 9.41186 6.35377 10.3003 5.48709C11.1887 4.62041 12.2434 3.93292 13.4042 3.46388C14.565 2.99483 15.8091 2.75342 17.0655 2.75342C18.3219 2.75342 19.566 2.99483 20.7268 3.46388C21.8875 3.93292 22.9423 4.62041 23.8307 5.48709C24.7191 6.35377 25.4238 7.38267 25.9046 8.51504C26.3854 9.64741 26.6329 10.8611 26.6329 12.0868C26.6329 15.5228 23.4442 21.3001 17.0655 29.4201ZM17.0655 17.4201C18.5154 17.4201 19.906 16.8582 20.9313 15.858C21.9566 14.8578 22.5326 13.5012 22.5326 12.0868C22.5326 10.6723 21.9566 9.31571 20.9313 8.31552C19.906 7.31532 18.5154 6.75342 17.0655 6.75342C15.6155 6.75342 14.2249 7.31532 13.1997 8.31552C12.1744 9.31571 11.5984 10.6723 11.5984 12.0868C11.5984 13.5012 12.1744 14.8578 13.1997 15.858C14.2249 16.8582 15.6155 17.4201 17.0655 17.4201Z" fill="#4189CB"/>
</svg>
